<?xml version="1.0" encoding="UTF-8"?>
<svg version="1.1" xmlns="http://www.w3.org/2000/svg" width="172" height="105">
<path d="M0 0 C56.76 0 113.52 0 172 0 C172 34.65 172 69.3 172 105 C115.24 105 58.48 105 0 105 C0 70.35 0 35.7 0 0 Z " fill="#FDFDFD" transform="translate(0,0)"/>
<path d="M0 0 C5.03180562 0.57167635 10.11421989 0.62984089 15.17333984 0.7824707 C19.62554749 0.96136911 23.28187847 1.19394614 27.33154297 3.26489258 C27.33154297 3.92489258 27.33154297 4.58489258 27.33154297 5.26489258 C23.59475867 7.75608211 21.58702477 7.47141518 17.14404297 7.38989258 C15.87173828 7.3718457 14.59943359 7.35379883 13.28857422 7.33520508 C12.31275391 7.31200195 11.33693359 7.28879883 10.33154297 7.26489258 C10.00154297 9.57489258 9.67154297 11.88489258 9.33154297 14.26489258 C9.88841797 14.53301758 10.44529297 14.80114258 11.01904297 15.07739258 C13.33154297 16.26489258 13.33154297 16.26489258 15.55810547 17.64379883 C18.63187714 19.44044002 21.78934599 20.89258625 25.01904297 22.38989258 C40.88852069 30.10297906 50.37847054 43.65707185 56.70654297 59.76489258 C57.62514539 64.90906616 57.68501973 70.05316548 57.33154297 75.26489258 C57.00154297 75.59489258 56.67154297 75.92489258 56.33154297 76.26489258 C49.32863212 76.03146222 43.70792279 74.07549552 37.24951172 71.42114258 C33.3700541 69.88390101 30.10781365 69.14151214 25.93701172 69.10375977 C25.0751123 69.09415222 24.21321289 69.08454468 23.32519531 69.074646 C22.39916504 69.07039612 21.47313477 69.06614624 20.51904297 69.06176758 C19.55434082 69.0560675 18.58963867 69.05036743 17.59570312 69.04449463 C15.55144341 69.03505184 13.50716852 69.02851351 11.46289062 69.0246582 C8.37065088 69.01501454 5.2790938 68.98400997 2.18701172 68.95239258 C-9.72081938 68.88857351 -19.77379552 69.47627971 -30.91845703 73.95239258 C-35.22216797 75.45869141 -38.1590437 75.50646829 -42.66845703 75.26489258 C-43.60113604 61.5078772 -37.94391156 49.11754099 -29.46142578 38.50317383 C-27.26981838 36.00541344 -25.01354323 33.61842954 -22.66845703 31.26489258 C-22.12833984 30.70157227 -21.58822266 30.13825195 -21.03173828 29.55786133 C-15.38527305 24.16740712 -6.53764281 19.15328163 1.13623047 17.75317383 C3.7102175 17.44629755 3.7102175 17.44629755 5.33154297 14.26489258 C5.99154297 14.26489258 6.65154297 14.26489258 7.33154297 14.26489258 C6.83654297 10.30489258 6.83654297 10.30489258 6.33154297 6.26489258 C5.43951172 6.2880957 4.54748047 6.31129883 3.62841797 6.33520508 C2.45794922 6.35325195 1.28748047 6.37129883 0.08154297 6.38989258 C-1.65869141 6.42469727 -1.65869141 6.42469727 -3.43408203 6.46020508 C-6.49631749 6.27528748 -8.11048455 5.8731228 -10.66845703 4.26489258 C-10.33845703 2.94489258 -10.00845703 1.62489258 -9.66845703 0.26489258 C-6.29758229 -0.99918545 -3.49559174 -0.47140052 0 0 Z " fill="#2BC28E" transform="translate(76.66845703125,16.735107421875)"/>
<path d="M0 0 C13.57017544 9.06762875 24.09511292 22.1524099 27.41796875 38.44921875 C27.73914301 42.48018839 27.83492945 46.42315562 27.41796875 50.44921875 C27.08796875 50.77921875 26.75796875 51.10921875 26.41796875 51.44921875 C20.58880054 51.39918297 15.53067455 50.21860106 10.41796875 47.44921875 C10.08796875 46.45921875 9.75796875 45.46921875 9.41796875 44.44921875 C6.85754809 43.41882919 6.85754809 43.41882919 3.85546875 42.76171875 C2.33759766 42.38466797 2.33759766 42.38466797 0.7890625 42 C0.00660156 41.81824219 -0.77585937 41.63648438 -1.58203125 41.44921875 C-1.6078125 40.14726563 -1.63359375 38.8453125 -1.66015625 37.50390625 C-1.71645826 35.77731119 -1.77380512 34.05074999 -1.83203125 32.32421875 C-1.84621094 31.46828125 -1.86039063 30.61234375 -1.875 29.73046875 C-2.11895293 23.38769263 -3.44368939 19.40736874 -8.21484375 14.91015625 C-8.70726563 14.55179688 -9.1996875 14.1934375 -9.70703125 13.82421875 C-12.28869804 11.69153749 -13.4459994 10.51650474 -14.58203125 7.44921875 C-14.91203125 8.10921875 -15.24203125 8.76921875 -15.58203125 9.44921875 C-19.87203125 9.44921875 -24.16203125 9.44921875 -28.58203125 9.44921875 C-27.83203125 -0.17578125 -27.83203125 -0.17578125 -25.58203125 -3.55078125 C-23.58257186 -3.59728031 -21.58167535 -3.58851038 -19.58203125 -3.55078125 C-18.50953125 -3.96328125 -17.43703125 -4.37578125 -16.33203125 -4.80078125 C-9.99554405 -6.06807869 -5.37515409 -3.2283452 0 0 Z " fill="#BB95C4" transform="translate(106.58203125,41.55078125)"/>
<path d="M0 0 C0.66 0 1.32 0 2 0 C2 1.98 2 3.96 2 6 C2.69867188 5.98839844 3.39734375 5.97679687 4.1171875 5.96484375 C5.02726562 5.95582031 5.93734375 5.94679688 6.875 5.9375 C8.23238281 5.92009766 8.23238281 5.92009766 9.6171875 5.90234375 C12 6 12 6 14 7 C14.33 6.01 14.66 5.02 15 4 C15.2475 4.78375 15.495 5.5675 15.75 6.375 C17.23544891 9.49444272 18.02904183 9.52272798 21 11 C22.66796875 12.65625 22.66796875 12.65625 24.1875 14.5 C24.95126953 15.41265625 24.95126953 15.41265625 25.73046875 16.34375 C27.94451212 19.23222504 28.11363321 21.04567555 28.0625 24.625 C28.05347656 25.44226563 28.04445312 26.25953125 28.03515625 27.1015625 C28.02355469 27.72804688 28.01195312 28.35453125 28 29 C27.34080566 28.67547852 26.68161133 28.35095703 26.00244141 28.01660156 C22.28472466 26.75781375 18.83806444 26.71288382 14.9609375 26.734375 C14.19826569 26.73246155 13.43559387 26.7305481 12.64981079 26.72857666 C11.04453194 26.72722052 9.43924192 26.73087695 7.83398438 26.73925781 C5.37605273 26.7499954 2.918847 26.73932831 0.4609375 26.7265625 C-1.10156411 26.72788362 -2.66406527 26.73044502 -4.2265625 26.734375 C-5.32818222 26.72830231 -5.32818222 26.72830231 -6.45205688 26.72210693 C-10.18128019 26.75646046 -11.8156857 26.8771238 -15 29 C-15.57748803 30.96361864 -15.57748803 30.96361864 -15.6875 33.125 C-15.790625 34.40375 -15.89375 35.6825 -16 37 C-16.33 37 -16.66 37 -17 37 C-17.61121325 26.96591583 -16.44344772 20.02286553 -10.0625 12.125 C-8.14587949 10.00458693 -6.77982227 8.87489902 -4.25 7.4375 C-1.18223062 5.47753623 -0.84219323 3.44533593 0 0 Z " fill="#481ED6" transform="translate(77,44)"/>
<path d="M0 0 C0.75934341 -0.00287018 1.51868683 -0.00574036 2.30104065 -0.00869751 C3.90390775 -0.01073507 5.50679989 -0.00522672 7.10961914 0.00732422 C9.55476925 0.02336118 11.99826101 0.00747779 14.44335938 -0.01171875 C16.00390988 -0.00973583 17.56445936 -0.00589113 19.125 0 C19.85222763 -0.00607269 20.57945526 -0.01214539 21.32872009 -0.0184021 C25.74823838 0.04239335 28.62650057 0.64702761 32.12890625 3.3984375 C32.94123475 6.26715005 32.46600728 8.3645282 32.12890625 11.3984375 C29.46476281 14.06258094 27.47728023 13.63664863 23.85498047 13.65068054 C22.99662598 13.64349503 22.13827148 13.63630951 21.25390625 13.62890625 C20.3736377 13.62844803 19.49336914 13.62798981 18.58642578 13.6275177 C16.72361912 13.62449407 14.86081501 13.61660445 12.99804688 13.60424805 C10.14053426 13.58601171 7.28334593 13.5837382 4.42578125 13.58398438 C2.61848677 13.57906846 0.8111945 13.57323982 -0.99609375 13.56640625 C-1.85444824 13.56529343 -2.71280273 13.5641806 -3.59716797 13.56303406 C-9.63896594 13.51450141 -9.63896594 13.51450141 -11.87109375 12.3984375 C-11.97945828 10.96260749 -12.05685542 9.5244173 -12.12109375 8.0859375 C-12.1675 7.28542969 -12.21390625 6.48492187 -12.26171875 5.66015625 C-11.87109375 3.3984375 -11.87109375 3.3984375 -10.33862305 1.78198242 C-6.93927543 -0.1240335 -3.7953509 -0.03160499 0 0 Z " fill="#40BEEB" transform="translate(72.87109375,69.6015625)"/>
<path d="M0 0 C5.03180562 0.57167635 10.11421989 0.62984089 15.17333984 0.7824707 C19.62554749 0.96136911 23.28187847 1.19394614 27.33154297 3.26489258 C27.33154297 3.92489258 27.33154297 4.58489258 27.33154297 5.26489258 C23.59475867 7.75608211 21.58702477 7.47141518 17.14404297 7.38989258 C15.87173828 7.3718457 14.59943359 7.35379883 13.28857422 7.33520508 C11.82484375 7.30040039 11.82484375 7.30040039 10.33154297 7.26489258 C10.00154297 9.57489258 9.67154297 11.88489258 9.33154297 14.26489258 C9.90904297 14.51239258 10.48654297 14.75989258 11.08154297 15.01489258 C13.63184267 16.43172575 15.34939998 18.14116795 17.33154297 20.26489258 C15.77187705 20.63133836 14.20861646 20.9825012 12.64404297 21.32739258 C11.33886719 21.62323242 11.33886719 21.62323242 10.00732422 21.92504883 C7.14284749 22.28885828 5.12443167 21.91777565 2.33154297 21.26489258 C-0.00147689 21.22664635 -2.33557211 21.21914974 -4.66845703 21.26489258 C-2.84924521 19.0626888 -1.96571461 18.32289406 0.89404297 17.76489258 C3.6901718 17.48919887 3.6901718 17.48919887 5.33154297 14.26489258 C5.99154297 14.26489258 6.65154297 14.26489258 7.33154297 14.26489258 C7.00154297 11.62489258 6.67154297 8.98489258 6.33154297 6.26489258 C5.43951172 6.2880957 4.54748047 6.31129883 3.62841797 6.33520508 C2.45794922 6.35325195 1.28748047 6.37129883 0.08154297 6.38989258 C-1.65869141 6.42469727 -1.65869141 6.42469727 -3.43408203 6.46020508 C-6.49631749 6.27528748 -8.11048455 5.8731228 -10.66845703 4.26489258 C-10.33845703 2.94489258 -10.00845703 1.62489258 -9.66845703 0.26489258 C-6.29758229 -0.99918545 -3.49559174 -0.47140052 0 0 Z " fill="#767D7A" transform="translate(76.66845703125,16.735107421875)"/>
<path d="M0 0 C5.97503374 -0.76045884 5.97503374 -0.76045884 8.9375 1.4375 C10.55806107 5.345912 10.18581773 8.78813152 10 13 C5.71 13 1.42 13 -3 13 C-2.25 3.375 -2.25 3.375 0 0 Z " fill="#E105B2" transform="translate(81,38)"/>
<path d="M0 0 C0.66 0 1.32 0 2 0 C2 2.97 2 5.94 2 9 C3.32 9.66 4.64 10.32 6 11 C7.37086915 12.29470975 8.71340837 13.62150897 10 15 C8.44033408 15.36644578 6.87707349 15.71760862 5.3125 16.0625 C4.00732422 16.35833984 4.00732422 16.35833984 2.67578125 16.66015625 C-0.18869548 17.0239657 -2.2071113 16.65288307 -5 16 C-7.33301986 15.96175377 -9.66711508 15.95425716 -12 16 C-10.18078818 13.79779622 -9.29725758 13.05800148 -6.4375 12.5 C-3.64137117 12.2243063 -3.64137117 12.2243063 -2 9 C-1.34 9 -0.68 9 0 9 C0 6.03 0 3.06 0 0 Z " fill="#273330" transform="translate(84,22)"/>
<path d="M0 0 C0.495 0.99 0.495 0.99 1 2 C3.57951874 2.69093896 3.57951874 2.69093896 6.5625 3.125 C7.57441406 3.29257813 8.58632812 3.46015625 9.62890625 3.6328125 C10.41136719 3.75398438 11.19382813 3.87515625 12 4 C12.495 5.485 12.495 5.485 13 7 C11.13988281 6.52046875 11.13988281 6.52046875 9.2421875 6.03125 C-0.19854625 4.14110662 -9.99501386 4.58057641 -19.58496094 4.46826172 C-22.20005379 4.43454003 -24.81478141 4.38947362 -27.4296875 4.34375 C-28.23074921 4.3384729 -29.03181091 4.3331958 -29.85714722 4.32775879 C-33.69634876 4.25892941 -36.74588683 4.17447242 -40 2 C-38.82381104 1.97494385 -37.64762207 1.9498877 -36.43579102 1.92407227 C-32.08785378 1.83017194 -27.74008284 1.72990952 -23.39233398 1.62768555 C-21.50760782 1.58427067 -19.62284064 1.54260057 -17.73803711 1.50268555 C-15.03486751 1.44514107 -12.33190564 1.38140196 -9.62890625 1.31640625 C-8.78099014 1.29969376 -7.93307404 1.28298126 -7.0594635 1.26576233 C-3.21707924 1.53590805 -3.21707924 1.53590805 0 0 Z " fill="#4BCBA9" transform="translate(104,81)"/>
<path d="M0 0 C2.2477975 2.05233685 3.0022242 3.00667261 4 6 C2.08025553 5.76424191 0.16067403 5.52703475 -1.7578125 5.28125 C-3.81546983 5.02314664 -5.87640198 4.79151089 -7.9375 4.5625 C-8.948125 4.376875 -9.95875 4.19125 -11 4 C-11.33 3.34 -11.66 2.68 -12 2 C-10.37509046 1.97301811 -8.75005367 1.95361243 -7.125 1.9375 C-6.22007813 1.92589844 -5.31515625 1.91429687 -4.3828125 1.90234375 C-2 2 -2 2 0 3 C0 2.01 0 1.02 0 0 Z " fill="#35183D" transform="translate(91,48)"/>
<path d="M0 0 C0.99 0.33 1.98 0.66 3 1 C2.04882866 2.1725131 1.08882991 3.33787015 0.125 4.5 C-0.40867187 5.1496875 -0.94234375 5.799375 -1.4921875 6.46875 C-1.98976563 6.9740625 -2.48734375 7.479375 -3 8 C-3.66 8 -4.32 8 -5 8 C-4.45773019 4.20411134 -2.79872437 2.52788007 0 0 Z " fill="#2F2985" transform="translate(70,53)"/>
<path d="M0 0 C0.66 0 1.32 0 2 0 C1.125 6.75 1.125 6.75 0 9 C-0.99 9 -1.98 9 -3 9 C-2.01 6.03 -1.02 3.06 0 0 Z " fill="#362856" transform="translate(77,44)"/>
<path d="M0 0 C3.625 0.375 3.625 0.375 7 1 C7.33 1.99 7.66 2.98 8 4 C4.7 3.34 1.4 2.68 -2 2 C-1.34 1.34 -0.68 0.68 0 0 Z " fill="#56C5A2" transform="translate(109,84)"/>
<path d="M0 0 C0.33 0.66 0.66 1.32 1 2 C3.02463255 2.65213292 3.02463255 2.65213292 5 3 C5 3.33 5 3.66 5 4 C1.625 4.125 1.625 4.125 -2 4 C-2.66 3.34 -3.32 2.68 -4 2 C-2.68 1.34 -1.36 0.68 0 0 Z " fill="#34BF94" transform="translate(104,81)"/>
</svg>
